HIERARCHY
ROOT Hips
{
	OFFSET 0.000000 103.266502 0.000000
	CHANNELS 6 Xposition Yposition Zposition Xrotation Yrotation Zrotation 
	JOINT Spine
	{
		OFFSET -0.002400 12.777504 0.315300
		CHANNELS 3 Xrotation Yrotation Zrotation
		JOINT Spine1
		{
			OFFSET -0.002067 5.816869 0.032633
			CHANNELS 3 Xrotation Yrotation Zrotation
			JOINT Spine1_split
			{
				OFFSET -0.002067 5.816869 0.032633
				CHANNELS 3 Xrotation Yrotation Zrotation
				JOINT Spine2
				{
					OFFSET -0.002067 5.816869 0.032633
					CHANNELS 3 Xrotation Yrotation Zrotation
					JOINT Neck
					{
						OFFSET -0.003700 21.199493 -0.826900
						CHANNELS 3 Xrotation Yrotation Zrotation
						JOINT Head
						{
							OFFSET 0.000000 20.442200 4.834800
							CHANNELS 3 Xrotation Yrotation Zrotation
							JOINT HeadTop_End
							{
								OFFSET 0.000000 34.668396 4.968400
								CHANNELS 3 Xrotation Yrotation Zrotation
								End Site
								{
									OFFSET 0.000000 0.000000 0.000000
								}
							}
						}
					}
					JOINT LeftShoulder
					{
						OFFSET 3.288150 8.794197 -1.372250
						CHANNELS 3 Xrotation Yrotation Zrotation
						JOINT LeftShoulder_split
						{
							OFFSET 3.288150 8.794197 -1.372250
							CHANNELS 3 Xrotation Yrotation Zrotation
							JOINT LeftArm
							{
								OFFSET 11.953299 -2.279007 -0.146200
								CHANNELS 3 Xrotation Yrotation Zrotation
								JOINT LeftForeArm
								{
									OFFSET 18.448900 0.000000 0.000000
									CHANNELS 3 Xrotation Yrotation Zrotation
									JOINT LeftHand
									{
										OFFSET 29.527798 0.000000 0.000000
										CHANNELS 3 Xrotation Yrotation Zrotation
										JOINT LeftHandThumb1
										{
											OFFSET 10.739754 -2.369614 9.225399
											CHANNELS 3 Xrotation Yrotation Zrotation
											JOINT LeftHandThumb2
											{
												OFFSET 4.926170 -2.844131 2.844125
												CHANNELS 3 Xrotation Yrotation Zrotation
												JOINT LeftHandThumb3
												{
													OFFSET 4.614891 -2.664413 2.664409
													CHANNELS 3 Xrotation Yrotation Zrotation
													JOINT LeftHandThumb4
													{
														OFFSET 4.432465 -2.559082 2.559083
														CHANNELS 3 Xrotation Yrotation Zrotation
														End Site
														{
															OFFSET 0.000000 0.000000 0.000000
														}
													}
												}
											}
										}
										JOINT LeftHandIndex1
										{
											OFFSET 26.467674 0.187653 6.405298
											CHANNELS 3 Xrotation Yrotation Zrotation
											JOINT LeftHandIndex2
											{
												OFFSET 8.792900 0.000000 0.000000
												CHANNELS 3 Xrotation Yrotation Zrotation
												JOINT LeftHandIndex3
												{
													OFFSET 10.075203 0.000000 0.000000
													CHANNELS 3 Xrotation Yrotation Zrotation
													End Site
													{
														OFFSET 0.000000 0.000000 0.000000
													}
												}
											}
										}
										JOINT LeftHandMiddle1
										{
											OFFSET 25.764404 0.000000 0.000000
											CHANNELS 3 Xrotation Yrotation Zrotation
											JOINT LeftHandMiddle2
											{
												OFFSET 9.393974 0.000000 0.000000
												CHANNELS 3 Xrotation Yrotation Zrotation
												JOINT LeftHandMiddle3
												{
													OFFSET 10.771950 0.000000 0.000000
													CHANNELS 3 Xrotation Yrotation Zrotation
													End Site
													{
														OFFSET 0.000000 0.000000 0.000000
													}
												}
											}
										}
										JOINT LeftHandRing1
										{
											OFFSET 24.660927 0.144547 -6.225808
											CHANNELS 3 Xrotation Yrotation Zrotation
											JOINT LeftHandRing2
											{
												OFFSET 9.393799 0.000000 0.000000
												CHANNELS 3 Xrotation Yrotation Zrotation
												JOINT LeftHandRing3
												{
													OFFSET 9.928497 0.000000 0.000000
													CHANNELS 3 Xrotation Yrotation Zrotation
													End Site
													{
														OFFSET 0.000000 0.000000 0.000000
													}
												}
											}
										}
										JOINT LeftHandPinky1
										{
											OFFSET 23.655350 0.125290 -12.815412
											CHANNELS 3 Xrotation Yrotation Zrotation
											JOINT LeftHandPinky2
											{
												OFFSET 8.425102 0.000000 0.000000
												CHANNELS 3 Xrotation Yrotation Zrotation
												JOINT LeftHandPinky3
												{
													OFFSET 8.147003 0.000000 0.000000
													CHANNELS 3 Xrotation Yrotation Zrotation
													End Site
													{
														OFFSET 0.000000 0.000000 0.000000
													}
												}
											}
										}
									}
								}
							}
						}
					}
					JOINT RightShoulder
					{
						OFFSET -3.249400 8.794197 -1.372250
						CHANNELS 3 Xrotation Yrotation Zrotation
						JOINT RightShoulder_split
						{
							OFFSET -3.249400 8.794197 -1.372250
							CHANNELS 3 Xrotation Yrotation Zrotation
							JOINT RightArm
							{
								OFFSET -11.953299 -2.279007 -0.146200
								CHANNELS 3 Xrotation Yrotation Zrotation
								JOINT RightForeArm
								{
									OFFSET -18.448900 0.000000 0.000000
									CHANNELS 3 Xrotation Yrotation Zrotation
									JOINT RightHand
									{
										OFFSET -29.527802 0.000000 0.000000
										CHANNELS 3 Xrotation Yrotation Zrotation
										JOINT RightHandThumb1
										{
											OFFSET -10.739754 -2.369614 9.225399
											CHANNELS 3 Xrotation Yrotation Zrotation
											JOINT RightHandThumb2
											{
												OFFSET -4.926170 -2.844131 2.844125
												CHANNELS 3 Xrotation Yrotation Zrotation
												JOINT RightHandThumb3
												{
													OFFSET -4.614891 -2.664413 2.664409
													CHANNELS 3 Xrotation Yrotation Zrotation
													JOINT RightHandThumb4
													{
														OFFSET -4.432465 -2.559082 2.559083
														CHANNELS 3 Xrotation Yrotation Zrotation
														End Site
														{
															OFFSET 0.000000 0.000000 0.000000
														}
													}
												}
											}
										}
										JOINT RightHandIndex1
										{
											OFFSET -26.467674 0.187653 6.405298
											CHANNELS 3 Xrotation Yrotation Zrotation
											JOINT RightHandIndex2
											{
												OFFSET -8.792900 0.000000 0.000000
												CHANNELS 3 Xrotation Yrotation Zrotation
												JOINT RightHandIndex3
												{
													OFFSET -10.075203 0.000000 0.000000
													CHANNELS 3 Xrotation Yrotation Zrotation
													End Site
													{
														OFFSET 0.000000 0.000000 0.000000
													}
												}
											}
										}
										JOINT RightHandMiddle1
										{
											OFFSET -25.764404 0.000000 0.000000
											CHANNELS 3 Xrotation Yrotation Zrotation
											JOINT RightHandMiddle2
											{
												OFFSET -9.393974 0.000000 0.000000
												CHANNELS 3 Xrotation Yrotation Zrotation
												JOINT RightHandMiddle3
												{
													OFFSET -10.771950 0.000000 0.000000
													CHANNELS 3 Xrotation Yrotation Zrotation
													End Site
													{
														OFFSET 0.000000 0.000000 0.000000
													}
												}
											}
										}
										JOINT RightHandRing1
										{
											OFFSET -24.660927 0.144547 -6.225808
											CHANNELS 3 Xrotation Yrotation Zrotation
											JOINT RightHandRing2
											{
												OFFSET -9.393799 0.000000 0.000000
												CHANNELS 3 Xrotation Yrotation Zrotation
												JOINT RightHandRing3
												{
													OFFSET -9.928497 0.000000 0.000000
													CHANNELS 3 Xrotation Yrotation Zrotation
													End Site
													{
														OFFSET 0.000000 0.000000 0.000000
													}
												}
											}
										}
										JOINT RightHandPinky1
										{
											OFFSET -23.655350 0.125290 -12.815412
											CHANNELS 3 Xrotation Yrotation Zrotation
											JOINT RightHandPinky2
											{
												OFFSET -8.425102 0.000000 0.000000
												CHANNELS 3 Xrotation Yrotation Zrotation
												JOINT RightHandPinky3
												{
													OFFSET -8.147003 0.000000 0.000000
													CHANNELS 3 Xrotation Yrotation Zrotation
													End Site
													{
														OFFSET 0.000000 0.000000 0.000000
													}
												}
											}
										}
									}
								}
							}
						}
					}
				}
			}
		}
	}
	JOINT LeftUpLeg
	{
		OFFSET 11.394100 -6.187798 -0.413800
		CHANNELS 3 Xrotation Yrotation Zrotation
		JOINT LeftLeg
		{
			OFFSET 0.430247 -32.302673 3.732800
			CHANNELS 3 Xrotation Yrotation Zrotation
			JOINT LeftFoot
			{
				OFFSET -0.430247 -48.264931 -6.423300
				CHANNELS 3 Xrotation Yrotation Zrotation
				JOINT LeftToeBase
				{
					OFFSET 4.230900 -16.068199 23.438400
					CHANNELS 3 Xrotation Yrotation Zrotation
					JOINT LeftToe_End
					{
						OFFSET 4.510700 0.695400 19.974600
						CHANNELS 3 Xrotation Yrotation Zrotation
						End Site
						{
							OFFSET 0.000000 0.000000 0.000000
						}
					}
				}
			}
		}
	}
	JOINT RightUpLeg
	{
		OFFSET -11.333700 -6.187798 -0.413800
		CHANNELS 3 Xrotation Yrotation Zrotation
		JOINT RightLeg
		{
			OFFSET -0.430392 -32.302628 3.733000
			CHANNELS 3 Xrotation Yrotation Zrotation
			JOINT RightFoot
			{
				OFFSET 0.430392 -48.264973 -6.423500
				CHANNELS 3 Xrotation Yrotation Zrotation
				JOINT RightToeBase
				{
					OFFSET -4.230900 -16.068199 23.438400
					CHANNELS 3 Xrotation Yrotation Zrotation
					JOINT RightToe_End
					{
						OFFSET -4.510700 0.695400 19.974600
						CHANNELS 3 Xrotation Yrotation Zrotation
						End Site
						{
							OFFSET 0.000000 0.000000 0.000000
						}
					}
				}
			}
		}
	}
}
MOTION
Frames: 4
Frame Time: 0.016667
-2.327111 98.320801 12.429693 170.190924 -60.490163 167.324813 10.604893 -1.105124 -0.199692 -2.398478 -2.056337 2.718428 0.000000 0.000000 0.000000 -2.356987 -1.768259 2.869753 -3.888773 19.882588 3.910875 -0.526664 21.441463 -3.837597 0.000000 -0.000000 -0.000000 0.705978 3.275474 -11.637323 0.000000 0.000000 0.000000 -4.210783 -8.950337 -59.610599 5.910704 -15.225810 -6.973998 -0.347271 0.743004 15.812364 -4.200370 10.157375 11.960028 6.085786 10.556448 -0.157869 1.966877 8.748036 4.028412 0.000002 -0.000002 -0.000003 2.131785 -0.392595 -13.293927 -0.004690 0.197234 -18.934958 -0.000000 -0.000000 -0.000001 -1.008610 1.345594 -17.617310 0.069230 0.461245 -24.715296 -0.000003 0.000000 0.000000 -2.701874 4.172409 -17.242652 -0.035265 0.237671 -29.248601 -0.000004 0.000000 0.000001 -4.558670 4.536656 -26.611571 0.028896 0.178540 -30.761051 -0.000001 0.000001 0.000001 0.703462 1.524161 16.490404 0.000000 0.000000 0.000000 17.133169 25.354777 44.976239 15.517520 24.279265 -5.951857 -24.526016 1.149798 -17.348501 -0.473546 -9.226568 -6.063026 7.388331 -11.608386 1.218097 1.114538 -8.666562 -5.080451 0.000000 -0.000000 0.000001 2.309458 -3.333400 8.546108 0.013952 -0.262608 18.590062 -0.000000 -0.000001 0.000000 -1.980197 -5.331756 13.722397 0.108080 -0.649735 26.760649 -0.000001 0.000000 0.000000 -4.943430 -9.642925 11.063723 -0.035465 -0.347568 32.710940 -0.000001 -0.000001 0.000000 -6.499161 -10.799779 23.445978 0.059681 -0.257512 34.143269 -0.000001 -0.000000 -0.000000 -8.199098 10.375048 18.817774 20.694585 23.277975 2.280569 -5.936831 5.831327 -22.755841 -7.172401 1.814691 -2.983424 0.000000 -0.000000 0.000000 -28.415984 -18.735236 -15.438408 20.332256 -17.809706 1.931599 2.993591 0.270318 7.122169 -0.871122 -11.159890 6.053563 -0.000000 -0.000000 -0.000000 
-2.209297 98.117043 10.943909 170.519375 -58.720038 167.757396 10.499043 -1.213157 -0.242710 -2.304555 -2.290390 3.051407 0.000000 0.000000 0.000000 -2.253761 -1.967687 3.217099 -4.003678 18.093280 2.764203 -1.209540 19.088007 -2.532616 0.000000 -0.000000 -0.000000 0.768062 3.463246 -12.577562 0.000000 0.000000 0.000000 -3.044080 -9.903343 -59.428315 7.177350 -16.260063 -6.053570 -3.592278 1.052233 15.956463 -4.274180 10.467638 11.892677 5.838994 10.360597 0.041995 2.116440 8.726461 3.819016 -0.000000 -0.000003 -0.000003 2.051722 -0.987328 -14.446075 -0.008073 0.184417 -19.251009 0.000002 0.000001 0.000000 -0.876467 0.677754 -18.735059 0.063327 0.418328 -24.711913 0.000001 -0.000001 -0.000002 -2.394408 3.204074 -18.922863 -0.032560 0.215859 -29.133427 -0.000002 -0.000001 -0.000000 -4.267620 3.447785 -27.868215 0.025622 0.162051 -30.809836 -0.000001 0.000000 0.000001 0.701272 1.355151 15.823429 0.000000 0.000000 0.000000 16.534483 25.640279 45.312708 15.474306 24.341835 -5.985867 -24.226864 1.766185 -17.288064 -0.475936 -9.284847 -6.057593 7.374037 -11.607327 1.199340 1.111019 -8.621563 -5.054191 0.000001 0.000001 0.000002 2.297459 -3.261833 8.600783 0.014285 -0.263308 18.582600 0.000000 -0.000000 0.000000 -1.979942 -5.246749 13.763546 0.107331 -0.646757 26.717318 0.000001 -0.000000 0.000001 -4.937387 -9.523907 11.140114 -0.035761 -0.348089 32.646931 -0.000000 -0.000000 0.000000 -6.512591 -10.659428 23.476284 0.059902 -0.258267 34.082883 -0.000002 -0.000000 0.000000 -8.374231 9.725143 19.825736 22.282264 24.854824 2.382956 -4.132440 5.958496 -24.929518 -7.896818 1.479668 -2.532949 -0.000000 -0.000002 -0.000000 -30.332013 -22.222418 -15.113192 21.558430 -13.834782 1.121376 2.418831 1.178212 6.017023 -0.662057 -10.704138 6.053022 -0.000000 0.000001 -0.000000 
-2.080698 97.911743 9.481541 170.981123 -57.066043 168.249061 10.601780 -1.329483 -0.120427 -2.282223 -2.483317 3.172532 0.000000 0.000000 0.000000 -2.225452 -2.139754 3.353372 -4.312743 16.256598 2.263037 -1.323577 17.025312 -2.023879 0.000000 0.000000 -0.000000 0.793943 3.860551 -12.834927 0.000000 0.000000 0.000000 -2.590063 -10.725965 -59.685308 6.796635 -15.986956 -5.978540 -4.516845 0.869633 16.178119 -4.350497 10.787275 11.824435 5.585228 10.158488 0.246095 2.270164 8.703479 3.603668 -0.000002 -0.000003 -0.000003 1.949229 -1.594981 -15.631615 -0.011632 0.171269 -19.576166 -0.000004 0.000001 0.000001 -0.762996 -0.013259 -19.880396 0.057201 0.374160 -24.708066 -0.000003 0.000001 0.000001 -2.128879 2.191431 -20.636086 -0.029274 0.193465 -29.015576 -0.000003 -0.000000 -0.000000 -4.009858 2.316287 -29.144253 0.022200 0.145130 -30.860960 -0.000004 -0.000000 -0.000001 0.708322 1.125617 15.555421 0.000000 0.000000 0.000000 16.276307 26.099169 45.427653 15.667827 24.549506 -6.236638 -23.970023 2.169555 -17.977328 -0.478576 -9.343084 -6.052157 7.359754 -11.606340 1.180570 1.107550 -8.576588 -5.028097 -0.000001 -0.000001 0.000003 2.285646 -3.191664 8.655807 0.014422 -0.263772 18.575608 0.000000 0.000000 -0.000000 -1.980056 -5.161925 13.801833 0.106595 -0.643616 26.672608 0.000001 0.000001 0.000000 -4.933559 -9.403489 11.210510 -0.036028 -0.348472 32.579183 0.000001 0.000000 0.000001 -6.528591 -10.515618 23.497382 0.059944 -0.258736 34.016094 0.000000 0.000001 -0.000001 -8.814605 9.452432 21.095632 24.173385 25.856649 2.444279 -2.078514 5.818684 -27.132570 -8.801171 1.105671 -1.740820 -0.000000 -0.000002 0.000000 -31.603593 -24.468135 -14.548815 22.853917 -10.950173 0.472042 1.760629 1.862396 5.074791 -0.484712 -10.324527 5.923318 -0.000000 0.000001 0.000000 
-1.932921 97.710373 7.904880 171.960449 -55.259830 169.057113 11.006581 -1.372929 0.510402 -2.311407 -2.458911 2.656139 0.000000 0.000000 0.000000 -2.266526 -2.142648 2.841960 -4.723527 14.069397 3.187260 -1.044573 15.252410 -2.299039 -0.000000 0.000001 -0.000000 0.698520 3.486600 -11.418148 0.000000 0.000000 0.000000 -2.788100 -10.705286 -61.013588 6.324338 -14.736758 -5.900924 -4.856893 0.224949 16.321925 -4.428141 11.111377 11.756505 5.328292 9.952993 0.451400 2.425797 8.679532 3.385521 -0.000003 0.000002 -0.000000 1.824249 -2.206779 -16.833157 -0.015531 0.158005 -19.905606 -0.000001 0.000000 0.000001 -0.671706 -0.717652 -21.035722 0.051049 0.329374 -24.704156 -0.000003 0.000001 0.000002 -1.913185 1.149653 -22.356123 -0.025951 0.170697 -28.896673 0.000001 0.000000 -0.000001 -3.792512 1.158816 -30.419723 0.018544 0.127881 -30.913518 -0.000002 0.000000 0.000001 0.748272 0.713191 16.348350 0.000000 0.000000 0.000000 16.070861 26.382586 45.353535 15.509620 24.754771 -6.377435 -23.526476 2.543084 -18.509809 -0.481020 -9.401260 -6.046679 7.345446 -11.605488 1.161669 1.104113 -8.531589 -5.001963 0.000002 -0.000000 -0.000002 2.274405 -3.123232 8.711377 0.014469 -0.263985 18.568817 -0.000000 -0.000000 0.000001 -1.980345 -5.077289 13.837594 0.105873 -0.640503 26.625889 -0.000001 0.000000 0.000000 -4.930957 -9.281456 11.275147 -0.036158 -0.348581 32.507462 -0.000002 0.000000 -0.000000 -6.546910 -10.368710 23.509620 0.059886 -0.258973 33.943339 -0.000001 -0.000001 0.000002 -8.925667 9.694337 22.641923 25.868254 26.604338 2.490456 0.176939 5.385241 -29.367303 -9.275684 0.728423 -2.308659 0.000000 -0.000000 -0.000000 -31.729927 -24.586173 -13.277869 24.176684 -9.566582 0.216034 1.154856 2.024791 4.475743 -0.370735 -10.312310 5.945155 -0.000000 0.000001 -0.000000 
